<svg xmlns="http://www.w3.org/2000/svg" width="38" height="38" fill="none" xmlns:v="https://vecta.io/nano"><path fill-rule="evenodd" d="M19 38c10.493 0 19-8.507 19-19S29.493 0 19 0 0 8.507 0 19s8.507 19 19 19z" fill="#3ddc84"/><path d="M14.807 21.33c.684 0 1.404.294 2.195.917.972.771 1.619 1.138 1.979 1.138.54 0 .792-.294.792-.844 0-.294-.144-.55-.468-.771-.18-.11-1.08-.477-2.771-1.064-2.735-.991-4.103-2.789-4.103-5.468 0-2.018.72-3.596 2.159-4.734C15.887 9.514 17.434 9 19.306 9c1.619 0 3.023.404 4.211 1.174s1.799 1.798 1.799 3.046c0 .734-.216 1.358-.684 1.871s-1.044.734-1.764.734c-.756 0-1.584-.367-2.519-1.101-.576-.44-1.008-.697-1.296-.697-.504 0-.756.257-.756.734s.612.917 1.871 1.284c1.728.55 3.023 1.211 3.959 2.018 1.26 1.064 1.872 2.532 1.872 4.44 0 2.092-.684 3.706-2.087 4.881C22.617 28.486 20.925 29 18.838 29s-3.815-.55-5.183-1.688C12.576 26.395 12 25.367 12 24.156c0-.807.252-1.468.792-2.018.576-.514 1.224-.807 2.015-.807z" fill="#fff"/></svg>